<?xml version="1.0" standalone="no"?><!DOCTYPE svg PUBLIC "-//W3C//DTD SVG 1.1//EN" "http://www.w3.org/Graphics/SVG/1.1/DTD/svg11.dtd"><svg t="1748271950477" class="icon" viewBox="0 0 1024 1024" version="1.1" xmlns="http://www.w3.org/2000/svg" p-id="19971" xmlns:xlink="http://www.w3.org/1999/xlink" width="32" height="32"><path d="M621.85368 904.620091c-0.520134 0-1.232758-0.12901-1.878829-0.841634l0.195562-3.428992 67.646056-60.660086h-117.920873c0.032764-1.000336 0.066553-4.270626 0.032764-4.915674h117.27173l-66.513639-60.851552-0.195562-3.3993 3.590766-0.19249 71.433407 65.283952 0.032765 3.590766-72.078456 64.767914-1.615691 0.647096zM483.390596 870.876926c-18.829251 0-34.163982-15.334731-34.163981-34.16091 0-18.829251 15.334731-34.163982 34.163981-34.163982 18.796487 0 34.098453 15.334731 34.098453 34.163982 0 18.826179-15.301966 34.16091-34.098453 34.16091zM345.898155 905.783224c-0.616379 0-1.133441-0.225255-1.587022-0.613307l-73.662406-66.221831 0.032765-3.657319 73.049098-65.801014 3.491449 0.354264-0.258019 3.332747-68.292127 61.596941h118.113363c-0.032764 0.646072 0 3.915337 0.032764 4.915674H278.834691l68.746732 61.759739 0.158702 3.49452-1.84197 0.839586zM480.800166 698.964532l-316.390804-0.195562c-28.923737-0.904091-51.957061-24.587582-51.957061-53.961828V171.706593c0-29.861615 24.263011-54.15739 54.090838-54.157391H364.987473c34.648279 0 61.789432 22.129234 81.620043 38.305598 14.364087 11.710176 24.783144 20.184875 36.976595 20.184876h185.76249c29.85752 0 54.153295 24.263011 54.153295 54.090837v27.499512h132.576767c17.534036 0 35.648615 8.24842 46.196682 21.062345 5.177788 6.274369 10.806086 16.563393 8.215656 29.85752L848.926872 641.79999c-4.561409 26.495081-21.483162 57.164542-54.385717 57.164542H485.719935v51.14512c-0.778153-0.029693-4.045371-0.029693-4.919769 0v-51.14512z" fill="#FFFFFF" p-id="19972"></path><path d="M635.247124 758.100053c-7.765146-7.052522-19.799894-6.532388-26.915897 1.166205-3.303054 3.687011-4.982226 8.282208-4.982226 12.810853 0 5.177788 2.070296 10.289024 6.211912 14.106068 0 0 17.855536 16.238821 35.069096 32.028157h-94.01315c1.616715 5.952869 2.78292 12.098229 2.78292 18.50468 0 6.85696-1.295215 13.264434-3.107492 19.538803h94.207689a29300.910298 29300.910298 0 0 0-35.393668 31.769114 19.028909 19.028909 0 0 0-6.277441 14.106068 19.044267 19.044267 0 0 0 4.853217 12.747373c7.052522 7.827603 19.088294 8.473675 26.85344 1.421153l72.078455-64.764843c3.94503-3.561073 6.211912-8.672309 6.27437-14.042587a19.16099 19.16099 0 0 0-6.211913-14.106068l-71.429312-65.284976zM483.390596 785.987617c-27.953093 0-50.728398 22.775305-50.728398 50.728399 0 27.950022 22.775305 50.725327 50.728398 50.725327 27.886541 0 50.661846-22.775305 50.661846-50.725327 0-27.954117-22.775305-50.728398-50.661846-50.728399zM413.315885 836.714992c0-6.40645 1.166205-12.55181 2.78292-18.50468h-94.333627c17.793079-16.047355 36.297759-32.739757 36.297759-32.739757a18.866111 18.866111 0 0 0 6.340922-14.106068c0-4.528645-1.619787-9.05729-4.919769-12.68082-6.986993-7.827603-19.021742-8.473675-26.850369-1.487705l-73.049098 65.801014a18.980786 18.980786 0 0 0-6.27437 14.106068c0 5.435807 2.262787 10.548067 6.27437 14.168526l73.632713 66.192138c7.827603 7.052522 19.863375 6.340922 26.850368-1.424224a18.750412 18.750412 0 0 0 4.919769-12.68082c0-5.241269-2.136849-10.414962-6.343993-14.235078 0 0-18.69717-16.755883-36.619259-32.868767h94.400179c-1.813301-6.275393-3.108516-12.681844-3.108515-19.539827zM856.07564 241.065609H740.063289v-10.935096c0-38.947574-31.640104-70.654231-70.717712-70.65423H483.583087c-18.051098 0-56.223591-58.490473-118.596637-58.490473H166.542115c-38.951669 0-70.654231 31.702561-70.65423 70.720783v473.101572c0 38.239045 30.540451 69.362087 68.521477 70.525222 0.388053 0 0.708529 0.195562 1.163134 0.195562h298.664277v54.090838c6.148431-1.745724 12.489353-2.974387 19.154847-2.974387 6.598941 0 12.87331 1.228662 18.892732 2.974387v-54.090838h292.257827c38.951669 0 64.121842-32.544195 70.657303-70.720784l61.531412-333.087302c7.69757-39.339722-31.703585-70.655255-70.655254-70.655254z" fill="#27323A" p-id="19973"></path><path d="M174.369719 665.836722h-7.827604c-11.581167 0-20.963028-9.448414-20.963028-21.02958V171.706593c0-11.581167 9.381861-21.029581 20.963028-21.029581h198.444335c22.837762 0 42.96018 16.367831 60.689778 30.861952 16.693426 13.589006 33.902891 27.628522 57.906859 27.628521h185.76249c11.581167 0 21.026509 9.381861 21.026509 20.963028v10.935096h-98.475242c-36.881373 0-68.587006 50.144784-82.301951 50.144783H313.740989c-39.018222 0-63.472699 31.769114-70.784264 70.720784L183.493561 647.848081c-1.358696 7.053546-4.011583 13.910506-9.123842 17.988641z" fill="#79CCBF" p-id="19974"></path><path d="M816.216808 636.395924c-0.19249 1.228662-5.241269 29.440799-21.675653 29.440798H229.239733c0.841634-2.848449 2.265858-4.786664 2.91193-7.894156l59.655655-286.825091c0.970643-5.045707 6.469931-30.21588 21.933671-30.21588h195.85288c24.650039 0 40.763946-14.881149 56.356697-29.310765 6.791431-6.274369 20.767466-19.217304 27.044907-20.834019h263.079143c11.969219 0 21.351081 8.282208 21.804662 11.96922l-61.66247 333.669893z" fill="#F4CE73" p-id="19975"></path><path d="M784.837794 394.475371H595.195802c-11.064105 0-20.058937 8.92828-20.058937 19.992385s8.993809 20.058937 20.058937 20.058937h189.641992c10.998576 0 19.925832-8.993809 19.925832-20.058937 0.001024-11.064105-8.927256-19.992385-19.925832-19.992385zM766.979186 482.857152H577.403747c-11.064105 0-19.995457 8.993809-19.995457 20.058937 0 11.064105 8.931352 19.992385 19.995457 19.992385h189.575439c10.998576 0 19.992385-8.92828 19.992385-19.992385 0-11.065129-8.993809-20.058937-19.992385-20.058937z" fill="#27323A" p-id="19976"></path><path d="M483.583087 209.166461c-24.003968 0-41.214456-14.039516-57.906859-27.628521-17.729598-14.493097-37.852017-30.861951-60.689778-30.861952H166.542115c-11.581167 0-20.963028 9.448414-20.963028 21.029581v37.460892h338.004z" fill="#FFFFFF" p-id="19977"></path></svg>